<svg width="241" height="44" viewBox="0 0 241 44" fill="none" xmlns="http://www.w3.org/2000/svg">
<mask id="mask0_739_328" style="mask-type:luminance" maskUnits="userSpaceOnUse" x="0" y="0" width="241" height="44">
<path d="M241 0H0V43.4837H241V0Z" fill="black"/>
<path d="M31.6349 14.9348L31.6562 14.6447C31.6709 14.4054 31.6775 14.1497 31.6775 13.8787C31.6775 10.135 29.9636 6.73992 27.1935 4.2813C24.4038 1.80575 20.5432 0.275391 16.2729 0.275391C12.0042 0.275391 8.14358 1.80793 5.35441 4.2813C2.58437 6.73992 0.868249 10.1334 0.868249 13.8787C0.868249 15.2511 1.09663 16.5744 1.52115 17.8163C1.96097 19.1073 2.61387 20.3197 3.43997 21.4146C3.53175 21.5343 3.56563 21.679 3.55088 21.82C3.47821 23.0023 2.96409 24.0672 2.1746 24.8528C1.64954 25.3735 1.00101 25.7729 0.274902 25.9991C0.6956 26.3428 1.154 26.6329 1.64299 26.8613C2.4516 27.241 3.33561 27.4568 4.24257 27.4847C5.01512 27.5082 5.7833 27.3972 6.52635 27.1689C7.31584 26.9279 8.08239 26.5542 8.8014 26.0783C8.96804 25.9696 9.17074 25.9587 9.3412 26.0313C10.4443 26.5072 11.5714 26.8722 12.7281 27.1153C13.8765 27.3563 15.0589 27.4803 16.2751 27.4803L16.9066 27.4715L17.0711 27.4628C17.5962 24.2316 19.297 21.3398 21.7725 19.1434C24.3612 16.847 27.8038 15.3063 31.6349 14.9326V14.9348ZM15.9866 19.6406C11.2103 16.9793 9.34503 14.3026 9.08878 12.2199C8.94127 11.0288 9.30459 10.0197 9.95749 9.2876C10.6066 8.56203 11.5408 8.11784 12.544 8.04955C13.8268 7.96213 15.2288 8.48281 16.2723 9.81265C17.3159 8.48281 18.7184 7.96213 20.0007 8.04955C21.0016 8.11784 21.9364 8.56203 22.5855 9.2876C23.2406 10.0197 23.6034 11.0294 23.4564 12.2199C23.2002 14.3032 21.3327 16.9836 16.5499 19.6449C16.3685 19.7455 16.1549 19.7367 15.9866 19.6406ZM10.2263 12.0811C10.4399 13.8164 12.0768 16.098 16.2723 18.4921C20.4684 16.0996 22.1074 13.8158 22.3183 12.0811C22.4211 11.2447 22.1752 10.5464 21.7316 10.0492C21.2857 9.54548 20.6301 9.24061 19.9236 9.19144C18.8205 9.11659 17.5847 9.68043 16.7673 11.1206C16.7182 11.2081 16.6455 11.2829 16.5537 11.3343C16.2783 11.49 15.9303 11.3938 15.7746 11.1206C14.9572 9.67988 13.7214 9.11659 12.6183 9.19144C11.914 9.23843 11.2589 9.54767 10.8104 10.0492C10.3662 10.5464 10.1209 11.2463 10.2236 12.0811H10.2263ZM25.2321 32.6489C24.9163 32.6489 24.6579 32.3926 24.6579 32.0768C24.6579 31.761 24.9163 31.5048 25.2321 31.5048H28.3032L30.1559 27.6972H25.2321C24.9163 27.6972 24.6579 27.441 24.6579 27.1252C24.6579 26.8094 24.9163 26.5531 25.2321 26.5531H30.7148L32.4118 23.0657C32.5506 22.7816 32.8942 22.6625 33.1778 22.8013C33.4619 22.94 33.581 23.2837 33.4422 23.5673L31.9889 26.5531H37.8792L39.5779 23.0657C39.7144 22.7816 40.0581 22.6625 40.3439 22.8013C40.628 22.94 40.7471 23.2837 40.6083 23.5673L39.155 26.5531H41.6671C41.9829 26.5531 42.2392 26.8094 42.2392 27.1252C42.2392 27.441 41.9807 27.6972 41.6671 27.6972H38.596L36.7433 31.5048H41.6671C41.9829 31.5048 42.2392 31.7632 42.2392 32.0768C42.2392 32.3926 41.9807 32.6489 41.6671 32.6489H36.1844L34.4874 36.1341C34.3486 36.4182 34.0072 36.5373 33.7214 36.3985C33.4373 36.2598 33.3182 35.9183 33.457 35.6325L34.9103 32.6467H29.0178L27.3208 36.1319C27.182 36.416 26.8384 36.5351 26.5548 36.3963C26.2707 36.2576 26.1516 35.9161 26.2904 35.6303L27.7437 32.6445H25.2315L25.2321 32.6489ZM29.5751 31.5026H35.4676L37.3203 27.695H31.4278L29.5751 31.5026ZM36.9958 42.8374C38.1524 42.5942 39.2795 42.2293 40.3826 41.7512C40.5537 41.6786 40.7564 41.6895 40.9225 41.7982C41.6436 42.2741 42.4102 42.6478 43.1997 42.8887C43.9422 43.1149 44.7109 43.2302 45.4813 43.2045C46.3904 43.1767 47.2739 42.9592 48.0809 42.5811C48.5677 42.3528 49.0282 42.0626 49.4489 41.719C48.7234 41.4928 48.0743 41.0918 47.5492 40.5705C46.7598 39.7849 46.2473 38.72 46.173 37.5377C46.1582 37.3989 46.1943 37.2536 46.2839 37.1323C47.1078 36.0374 47.7607 34.825 48.2027 33.534C48.625 32.2921 48.8556 30.9688 48.8556 29.5963C48.8556 25.8527 47.1395 22.4576 44.3694 19.999C41.5797 17.5234 37.7191 15.9931 33.451 15.9931C29.1828 15.9931 25.3217 17.5256 22.5303 19.999C19.7603 22.4576 18.0464 25.851 18.0464 29.5963C18.0464 33.34 19.7603 36.7351 22.5303 39.1937C25.32 41.6693 29.1806 43.2018 33.451 43.2018C34.6677 43.2018 35.85 43.0778 36.9979 42.8346L36.9958 42.8374Z" fill="white"/>
<path d="M77.6633 8.465H74.501L73.9017 10.4284L71.6903 16.7324H71.5042L69.3961 10.4284L68.8587 8.465H65.6343L64.291 21.7754H66.647L66.9365 17.4766L67.4531 12.6195H67.6392L70.3468 20.3701H72.517L75.4932 12.6195H75.6999L76.1752 17.7452L76.382 21.7754H78.8622L77.6633 8.465ZM86.2203 11.9787C83.2026 11.9787 81.5698 13.8181 81.5698 17.1665C81.5698 20.2667 83.0992 21.9822 85.9102 21.9822C88.9279 21.9822 90.5606 20.1427 90.5606 16.7946C90.5606 13.6735 89.0312 11.9787 86.2203 11.9787ZM86.0342 13.8387C87.3777 13.8387 87.977 14.8309 87.977 17.3524C87.977 19.3573 87.3983 20.1427 86.0963 20.1427C84.7322 20.1427 84.1535 19.1921 84.1535 16.6291C84.1535 14.6656 84.7113 13.8387 86.0342 13.8387ZM108.026 21.7754L107.902 17.5591L107.963 14.8103C108.005 13.0327 106.889 12.0408 104.801 12.0408C103.85 12.33 102.92 12.8468 102.114 13.5907H101.99C101.577 12.578 100.585 12.0408 99.0348 12.0408C98.146 12.33 97.2984 12.8262 96.5339 13.5289H96.389V12.1233L93.8057 12.3506L93.909 17.8071L93.7642 21.7754H96.4924L96.3684 17.5385V15.1204C97.0711 14.5623 97.7119 14.2522 98.3733 14.2522C99.2415 14.2522 99.6962 14.7896 99.6753 15.7818L99.5101 21.7754H102.259L102.135 17.5591L102.197 15.0789C102.858 14.5417 103.499 14.2522 104.14 14.2522C105.008 14.2522 105.442 14.7896 105.442 15.7818L105.277 21.7754H108.026ZM119.641 16.9804C119.703 16.5463 119.745 16.1537 119.745 15.7818C119.745 13.4049 118.36 11.9787 115.9 11.9787C113.027 11.9787 111.229 13.9008 111.229 17.001C111.229 20.1015 113.048 21.9822 116.086 21.9822C117.037 21.9822 118.029 21.7754 119.042 21.4035L119.455 19.3573L119.228 19.2127C118.153 19.688 117.223 19.936 116.375 19.936C114.763 19.936 113.875 19.0887 113.751 17.3524L119.331 17.3111L119.641 16.9804ZM117.306 15.7609L113.813 15.8437C114.04 14.521 114.763 13.7975 115.838 13.7975C116.81 13.7975 117.347 14.3762 117.347 15.4717L117.306 15.7609ZM128.839 21.7754H131.608L131.484 17.5591L131.546 14.8103C131.588 13.0327 130.472 12.0408 128.363 12.0408C127.495 12.33 126.648 12.8262 125.883 13.5289H125.738V12.1233L123.134 12.3506L123.238 17.8071L123.093 21.7754H125.842L125.718 17.5385V15.141C126.4 14.5623 127.061 14.2522 127.702 14.2522C128.57 14.2522 129.025 14.8103 129.004 15.7818L128.839 21.7754ZM139.359 19.7502C138.615 19.7502 138.284 19.4401 138.284 18.5306L138.408 13.9008H140.868L140.992 12.3921L140.909 12.2473H138.45L138.512 10.0152L138.326 9.84974L135.825 10.6558V12.2473H134.605L134.461 13.7562L134.564 13.9008H135.845L135.866 17.4557L135.763 19.1712C135.763 20.8042 136.693 21.7136 138.553 21.8997C139.297 21.8169 140.02 21.5896 140.702 21.2383L140.971 19.6053L140.744 19.3986C140.227 19.6468 139.772 19.7502 139.359 19.7502ZM147.13 11.9993C144.754 11.9993 143.369 13.3221 143.369 15.0582C143.369 18.1172 147.647 17.7452 147.647 19.2746C147.647 19.7708 147.234 20.2255 146.469 20.2255C145.704 20.2255 144.547 19.7914 143.658 19.0472L143.389 19.2127L143.079 21.3622C144.133 21.7755 145.229 21.9822 146.159 21.9822C148.804 21.9822 150.003 20.4322 150.003 18.8407C150.003 15.8437 145.745 16.2156 145.745 14.6863C145.745 14.2316 146.118 13.7975 146.82 13.7975C147.42 13.7975 148.246 14.0661 149.073 14.6035L149.404 14.5002L149.776 12.4746C148.97 12.1648 148.04 11.9993 147.13 11.9993ZM163.314 8.44437L158.209 8.465L158.353 17.8071L158.209 21.7754H161.02L160.896 17.5591V17.5179H162.218C165.546 17.5179 167.654 15.5544 167.654 12.5161C167.654 9.89123 166.084 8.44437 163.314 8.44437ZM162.838 15.4717L160.937 15.3889L161.02 10.5939L162.425 10.5112C163.975 10.5733 164.74 11.2553 164.74 12.7641C164.74 14.2522 164.079 15.1204 162.838 15.4717ZM174.041 11.9787C172.718 11.9787 171.313 12.3715 170.114 13.136L170.424 14.9549L170.631 15.0789C171.809 14.2522 172.718 13.8802 173.586 13.8802C174.475 13.8802 174.909 14.3143 174.909 15.2237V16.071L171.746 16.6703C170.341 16.9392 169.618 17.704 169.618 19.0887C169.618 20.8454 170.816 21.9409 172.801 21.9616C173.586 21.6515 174.289 21.1143 174.929 20.4322H175.074C175.26 21.3416 175.839 21.8582 176.666 21.9409C177.286 21.8788 177.761 21.693 178.174 21.4241L178.422 19.9775L178.216 19.812C177.968 19.8741 177.823 19.8948 177.679 19.8948C177.327 19.8948 177.203 19.7293 177.203 19.2746C177.203 18.6134 177.431 15.3889 177.431 14.6863C177.431 12.9708 176.149 11.9787 174.041 11.9787ZM174.888 17.4557L174.847 18.9854C174.289 19.5847 173.731 19.936 173.152 19.936C172.47 19.936 172.057 19.5228 172.057 18.7992C172.057 18.2618 172.263 18.0344 172.697 17.9313L174.888 17.4557ZM186.835 12.1441C185.925 12.1441 185.037 12.6813 184.313 14.0042H184.148L184.168 12.1233L181.564 12.3506L181.688 17.8071L181.523 21.7754H184.272L184.127 17.5385V16.2365C184.809 15.141 185.533 14.6863 186.297 14.6863C186.525 14.6863 186.814 14.7275 187.062 14.8309L187.351 14.7275V12.1854C187.186 12.1648 187 12.1441 186.835 12.1441ZM194.131 19.7502C193.387 19.7502 193.056 19.4401 193.056 18.5306L193.18 13.9008H195.639L195.763 12.3921L195.681 12.2473H193.221L193.283 10.0152L193.097 9.84974L190.596 10.6558V12.2473H189.377L189.232 13.7562L189.335 13.9008H190.617L190.638 17.4557L190.534 19.1712C190.534 20.8042 191.464 21.7136 193.325 21.8997C194.069 21.8169 194.792 21.5896 195.474 21.2383L195.743 19.6053L195.515 19.3986C194.999 19.6468 194.544 19.7502 194.131 19.7502ZM202.46 11.9787C201.137 11.9787 199.732 12.3715 198.533 13.136L198.843 14.9549L199.05 15.0789C200.228 14.2522 201.137 13.8802 202.005 13.8802C202.894 13.8802 203.328 14.3143 203.328 15.2237V16.071L200.166 16.6703C198.76 16.9392 198.037 17.704 198.037 19.0887C198.037 20.8454 199.236 21.9409 201.22 21.9616C202.005 21.6515 202.708 21.1143 203.349 20.4322H203.493C203.68 21.3416 204.258 21.8582 205.085 21.9409C205.705 21.8788 206.18 21.693 206.594 21.4241L206.842 19.9775L206.635 19.812C206.387 19.8741 206.242 19.8948 206.098 19.8948C205.746 19.8948 205.622 19.7293 205.622 19.2746C205.622 18.6134 205.85 15.3889 205.85 14.6863C205.85 12.9708 204.568 11.9787 202.46 11.9787ZM203.308 17.4557L203.266 18.9854C202.708 19.5847 202.15 19.936 201.571 19.936C200.889 19.936 200.476 19.5228 200.476 18.7992C200.476 18.2618 200.682 18.0344 201.117 17.9313L203.308 17.4557ZM219.305 13.4668V11.7513L219.098 11.5652C218.127 11.9168 217.093 12.206 216.06 12.3921C215.502 12.1648 214.82 12.0199 214.034 12.0199C211.492 12.0199 209.88 13.3015 209.88 15.4511C209.88 16.6703 210.417 17.5797 211.389 18.1172V18.2205C210.851 18.5925 210.376 19.006 209.983 19.4813C209.983 20.5356 210.603 21.0521 211.472 21.3622V21.4656C210.789 21.8788 210.211 22.375 209.756 23.0156C209.756 24.6485 211.099 25.8059 213.662 25.8059C216.432 25.8059 218.396 24.3797 218.396 22.4163C218.396 19.0472 212.298 20.4528 212.298 19.0681C212.298 18.882 212.381 18.758 212.608 18.5306C212.98 18.5925 213.373 18.634 213.807 18.634C216.391 18.634 217.982 17.3111 217.982 15.2443C217.982 14.7275 217.879 14.2728 217.672 13.8596L217.714 13.7769C218.251 13.6941 218.768 13.6114 219.305 13.4668ZM213.89 16.9804C212.815 16.9804 212.257 16.4017 212.257 15.3062C212.257 14.2522 212.836 13.7147 213.993 13.7147C215.088 13.7147 215.605 14.2316 215.605 15.2856C215.605 16.4017 215.006 16.9804 213.89 16.9804ZM216.081 22.9122C216.081 23.7391 215.192 24.1938 213.931 24.1938C212.629 24.1938 211.988 23.6976 211.988 22.995C211.988 22.5196 212.34 22.1271 212.98 21.693C214.51 21.9203 216.081 21.9409 216.081 22.9122ZM224.493 11.0486C225.815 10.2838 227.076 9.49839 228.523 8.6096L228.564 8.34101L227.572 6.8529L227.304 6.83228C226.084 7.96904 224.885 8.94032 223.563 9.9946L224.224 11.028L224.493 11.0486ZM229.515 16.9804C229.577 16.5463 229.618 16.1537 229.618 15.7818C229.618 13.4049 228.234 11.9787 225.774 11.9787C222.901 11.9787 221.103 13.9008 221.103 17.001C221.103 20.1015 222.922 21.9822 225.96 21.9822C226.911 21.9822 227.903 21.7754 228.916 21.4035L229.329 19.3573L229.102 19.2127C228.027 19.688 227.097 19.936 226.25 19.936C224.637 19.936 223.749 19.0887 223.625 17.3524L229.205 17.3111L229.515 16.9804ZM227.18 15.7609L223.687 15.8437C223.914 14.521 224.637 13.7975 225.712 13.7975C226.684 13.7975 227.221 14.3762 227.221 15.4717L227.18 15.7609ZM236.191 11.9993C233.814 11.9993 232.429 13.3221 232.429 15.0582C232.429 18.1172 236.708 17.7452 236.708 19.2746C236.708 19.7708 236.294 20.2255 235.53 20.2255C234.765 20.2255 233.608 19.7914 232.719 19.0472L232.45 19.2127L232.14 21.3622C233.194 21.7755 234.29 21.9822 235.22 21.9822C237.865 21.9822 239.064 20.4322 239.064 18.8407C239.064 15.8437 234.806 16.2156 234.806 14.6863C234.806 14.2316 235.178 13.7975 235.881 13.7975C236.48 13.7975 237.307 14.0661 238.134 14.6035L238.465 14.5002L238.837 12.4746C238.031 12.1648 237.1 11.9993 236.191 11.9993Z" fill="white"/>
<path d="M68.0302 34.4768H68.5308C68.4634 35.0956 68.242 35.5692 67.8665 35.8977C67.4912 36.2259 66.9914 36.39 66.367 36.39C65.9309 36.39 65.5454 36.2811 65.2103 36.0632C64.8753 35.8452 64.6163 35.5364 64.4333 35.1367C64.2503 34.737 64.1575 34.2801 64.1548 33.7662V33.0032C64.1548 32.4811 64.2463 32.0182 64.4292 31.6146C64.6122 31.2108 64.8753 30.8993 65.2185 30.68C65.5617 30.4607 65.9566 30.3511 66.4034 30.3511C67.0331 30.3511 67.5302 30.5213 67.8948 30.8618C68.2595 31.2021 68.4715 31.6723 68.5308 32.2725H68.0302C67.9063 31.2741 67.364 30.775 66.4034 30.775C65.8704 30.775 65.4458 30.9741 65.1296 31.3722C64.8134 31.7706 64.6553 32.321 64.6553 33.0233V33.742C64.6553 34.4203 64.8094 34.9612 65.1177 35.3648C65.4257 35.7684 65.8422 35.9702 66.367 35.9702C66.8863 35.9702 67.2779 35.8458 67.5417 35.597C67.8054 35.348 67.9683 34.9746 68.0302 34.4768ZM75.0733 32.9871V33.6896C75.0733 34.2305 74.9798 34.7055 74.7928 35.1145C74.6057 35.5236 74.3387 35.8384 73.9916 36.0591C73.6445 36.2797 73.2435 36.39 72.7886 36.39C72.1024 36.39 71.548 36.1445 71.1253 35.6535C70.7029 35.1623 70.4916 34.4996 70.4916 33.6654V33.0597C70.4916 32.5242 70.5865 32.0499 70.7763 31.6368C70.966 31.2237 71.2345 30.9061 71.5816 30.6841C71.9287 30.4621 72.3283 30.3511 72.7805 30.3511C73.2326 30.3511 73.6316 30.46 73.9773 30.678C74.3232 30.8961 74.5904 31.2042 74.7788 31.6024C74.9672 32.0008 75.0653 32.4623 75.0733 32.9871ZM74.5769 33.6733V33.0516C74.5769 32.3438 74.4167 31.7895 74.0964 31.3886C73.7762 30.9875 73.3375 30.7869 72.7805 30.7869C72.2341 30.7869 71.7988 30.9882 71.4746 31.3906C71.1503 31.7928 70.9881 32.3546 70.9881 33.076V33.6896C70.9881 34.3865 71.1496 34.9389 71.4726 35.3467C71.7956 35.7544 72.2343 35.9583 72.7886 35.9583C73.3511 35.9583 73.7897 35.7571 74.1046 35.3546C74.4194 34.9524 74.5769 34.3919 74.5769 33.6733ZM81.6928 30.4318V36.3094H81.1963L77.8173 31.2796V36.3094H77.3168V30.4318H77.8173L81.2004 35.4656V30.4318H81.6928ZM88.5544 30.4318V36.3094H88.0579L84.6792 31.2796V36.3094H84.1786V30.4318H84.6792L88.062 35.4656V30.4318H88.5544ZM94.2858 33.0719V33.4918H91.5367V35.8895H94.6975V36.3094H91.0402V30.4318H94.6774V30.8557H91.5367V33.0719H94.2858ZM100.397 34.4768H100.897C100.83 35.0956 100.609 35.5692 100.233 35.8977C99.8577 36.2259 99.3577 36.39 98.7333 36.39C98.2974 36.39 97.912 36.2811 97.5769 36.0632C97.2419 35.8452 96.9828 35.5364 96.7997 35.1367C96.6167 34.737 96.5239 34.2801 96.5211 33.7662V33.0032C96.5211 32.4811 96.6126 32.0182 96.7956 31.6146C96.9787 31.2108 97.2418 30.8993 97.5848 30.68C97.928 30.4607 98.323 30.3511 98.7697 30.3511C99.3994 30.3511 99.8966 30.5213 100.261 30.8618C100.626 31.2021 100.838 31.6723 100.897 32.2725H100.397C100.273 31.2741 99.7306 30.775 98.7697 30.775C98.2369 30.775 97.8124 30.9741 97.496 31.3722C97.1798 31.7706 97.0217 32.321 97.0217 33.0233V33.742C97.0217 34.4203 97.1758 34.9612 97.484 35.3648C97.7921 35.7684 98.2085 35.9702 98.7333 35.9702C99.2527 35.9702 99.6443 35.8458 99.908 35.597C100.172 35.348 100.335 34.9746 100.397 34.4768ZM106.967 30.4318V30.8557H104.953V36.3094H104.457V30.8557H102.446V30.4318H106.967ZM112.154 33.0719V33.4918H109.405V35.8895H112.566V36.3094H108.908V30.4318H112.546V30.8557H109.405V33.0719H112.154ZM118.325 30.7869L114.825 35.8895H118.454V36.3094H114.224V35.9341L117.712 30.8557H114.329V30.4318H118.325V30.7869ZM121.929 33.5119V33.9197H119.996V33.5119H121.929ZM123.821 30.4318L125.67 35.5827L125.703 35.708L125.739 35.5827L127.588 30.4318H128.133L125.945 36.3094H125.469L123.281 30.4318H123.821ZM134.28 32.9871V33.6896C134.28 34.2305 134.186 34.7055 133.999 35.1145C133.812 35.5236 133.545 35.8384 133.198 36.0591C132.851 36.2797 132.45 36.39 131.995 36.39C131.309 36.39 130.754 36.1445 130.332 35.6535C129.909 35.1623 129.698 34.4996 129.698 33.6654V33.0597C129.698 32.5242 129.793 32.0499 129.983 31.6368C130.172 31.2237 130.441 30.9061 130.788 30.6841C131.135 30.4621 131.535 30.3511 131.987 30.3511C132.439 30.3511 132.838 30.46 133.184 30.678C133.53 30.8961 133.797 31.2042 133.985 31.6024C134.174 32.0008 134.272 32.4623 134.28 32.9871ZM133.783 33.6733V33.0516C133.783 32.3438 133.623 31.7895 133.303 31.3886C132.983 30.9875 132.544 30.7869 131.987 30.7869C131.441 30.7869 131.005 30.9882 130.681 31.3906C130.357 31.7928 130.195 32.3546 130.195 33.076V33.6896C130.195 34.3865 130.356 34.9389 130.679 35.3467C131.002 35.7544 131.441 35.9583 131.995 35.9583C132.558 35.9583 132.996 35.7571 133.311 35.3546C133.626 34.9524 133.783 34.3919 133.783 33.6733ZM140.072 30.4318H140.572V34.4444C140.57 34.8401 140.482 35.1846 140.31 35.4779C140.138 35.7711 139.895 35.9965 139.581 36.154C139.268 36.3114 138.908 36.39 138.501 36.39C137.882 36.39 137.387 36.2212 137.014 35.8834C136.641 35.5456 136.448 35.078 136.434 34.4806V30.4318H136.927V34.408C136.927 34.9033 137.068 35.2875 137.351 35.5606C137.634 35.8337 138.017 35.9702 138.501 35.9702C138.986 35.9702 139.369 35.833 139.65 35.5585C139.931 35.2841 140.072 34.9019 140.072 34.4121V30.4318ZM146.275 34.8643C146.275 34.5386 146.161 34.2808 145.932 34.0911C145.704 33.9015 145.285 33.7212 144.677 33.5503C144.069 33.3794 143.625 33.193 143.345 32.9912C142.946 32.7059 142.747 32.3318 142.747 31.869C142.747 31.4195 142.932 31.0542 143.302 30.7729C143.672 30.4917 144.145 30.3511 144.721 30.3511C145.111 30.3511 145.461 30.4264 145.769 30.5772C146.077 30.7279 146.316 30.9378 146.485 31.2068C146.655 31.476 146.74 31.776 146.74 32.107H146.239C146.239 31.7061 146.102 31.3839 145.827 31.1403C145.553 30.8967 145.184 30.775 144.721 30.775C144.272 30.775 143.914 30.8752 143.647 31.0757C143.381 31.2761 143.248 31.5378 143.248 31.8608C143.248 32.1595 143.367 32.4031 143.607 32.5915C143.847 32.7799 144.23 32.9461 144.757 33.09C145.285 33.2339 145.685 33.3833 145.957 33.5381C146.228 33.6929 146.433 33.8779 146.57 34.0931C146.707 34.3085 146.776 34.5628 146.776 34.8561C146.776 35.319 146.591 35.6903 146.221 35.9702C145.851 36.2501 145.363 36.39 144.757 36.39C144.343 36.39 143.963 36.3161 143.617 36.1681C143.271 36.0201 143.009 35.8128 142.83 35.5463C142.651 35.28 142.562 34.9746 142.562 34.63H143.058C143.058 35.0445 143.213 35.3715 143.522 35.611C143.832 35.8505 144.243 35.9702 144.757 35.9702C145.215 35.9702 145.582 35.8693 145.86 35.6675C146.137 35.4657 146.275 35.198 146.275 34.8643ZM155.623 36.3094L155.013 34.6624H152.345L151.739 36.3094H151.218L153.443 30.4318H153.915L156.139 36.3094H155.623ZM153.677 31.0372L152.498 34.2385H154.856L153.677 31.0372ZM157.568 30.4318L159.416 35.5827L159.449 35.708L159.485 35.5827L161.334 30.4318H161.879L159.691 36.3094H159.215L157.027 30.4318H157.568ZM166.98 33.0719V33.4918H164.231V35.8895H167.392V36.3094H163.735V30.4318H167.372V30.8557H164.231V33.0719H166.98ZM173.091 34.4768H173.592C173.524 35.0956 173.303 35.5692 172.928 35.8977C172.552 36.2259 172.052 36.39 171.428 36.39C170.992 36.39 170.606 36.2811 170.271 36.0632C169.936 35.8452 169.677 35.5364 169.494 35.1367C169.311 34.737 169.219 34.2801 169.216 33.7662V33.0032C169.216 32.4811 169.307 32.0182 169.49 31.6146C169.673 31.2108 169.936 30.8993 170.279 30.68C170.623 30.4607 171.018 30.3511 171.464 30.3511C172.094 30.3511 172.591 30.5213 172.956 30.8618C173.321 31.2021 173.533 31.6723 173.592 32.2725H173.091C172.967 31.2741 172.425 30.775 171.464 30.775C170.931 30.775 170.507 30.9741 170.191 31.3722C169.874 31.7706 169.716 32.321 169.716 33.0233V33.742C169.716 34.4203 169.87 34.9612 170.179 35.3648C170.487 35.7684 170.903 35.9702 171.428 35.9702C171.947 35.9702 172.339 35.8458 172.603 35.597C172.866 35.348 173.029 34.9746 173.091 34.4768ZM179.294 30.4318V35.8895H182.196V36.3094H178.793V30.4318H179.294ZM187.387 33.0719V33.4918H184.638V35.8895H187.798V36.3094H184.141V30.4318H187.778V30.8557H184.638V33.0719H187.387ZM192.839 30.4318H193.496L195.664 35.6191L197.84 30.4318H198.502V36.3094H198.006V33.7502L198.046 31.1261L195.858 36.3094H195.474L193.295 31.1464L193.335 33.7339V36.3094H192.839V30.4318ZM205.327 32.9871V33.6896C205.327 34.2305 205.234 34.7055 205.047 35.1145C204.86 35.5236 204.593 35.8384 204.246 36.0591C203.898 36.2797 203.497 36.39 203.043 36.39C202.356 36.39 201.802 36.1445 201.38 35.6535C200.957 35.1623 200.746 34.4996 200.746 33.6654V33.0597C200.746 32.5242 200.84 32.0499 201.03 31.6368C201.22 31.2237 201.488 30.9061 201.836 30.6841C202.183 30.4621 202.582 30.3511 203.035 30.3511C203.487 30.3511 203.886 30.46 204.231 30.678C204.577 30.8961 204.844 31.2042 205.033 31.6024C205.221 32.0008 205.319 32.4623 205.327 32.9871ZM204.831 33.6733V33.0516C204.831 32.3438 204.671 31.7895 204.351 31.3886C204.03 30.9875 203.592 30.7869 203.035 30.7869C202.488 30.7869 202.053 30.9882 201.729 31.3906C201.404 31.7928 201.242 32.3546 201.242 33.076V33.6896C201.242 34.3865 201.404 34.9389 201.726 35.3467C202.049 35.7544 202.488 35.9583 203.043 35.9583C203.605 35.9583 204.044 35.7571 204.358 35.3546C204.674 34.9524 204.831 34.3919 204.831 33.6733ZM211.947 30.4318V36.3094H211.45L208.072 31.2796V36.3094H207.571V30.4318H208.072L211.454 35.4656V30.4318H211.947ZM216.039 36.3094H214.433V30.4318H216.076C216.557 30.4318 216.989 30.5414 217.371 30.7607C217.754 30.9802 218.052 31.2944 218.265 31.7035C218.48 32.1125 218.587 32.5781 218.587 33.1002V33.6409C218.587 34.1657 218.48 34.6314 218.268 35.0379C218.055 35.4442 217.756 35.7577 217.369 35.9784C216.983 36.199 216.54 36.3094 216.039 36.3094ZM216.084 30.8557H214.929V35.8895H216.043C216.662 35.8895 217.159 35.6843 217.533 35.2739C217.907 34.8635 218.094 34.3085 218.094 33.6089V33.092C218.094 32.4165 217.91 31.8756 217.541 31.4692C217.172 31.0629 216.686 30.8584 216.084 30.8557ZM224.084 33.0719V33.4918H221.335V35.8895H224.495V36.3094H220.838V30.4318H224.475V30.8557H221.335V33.0719H224.084Z" fill="white"/>
</mask>
<g mask="url(#mask0_739_328)">
<path d="M241 0H0V43.4837H241V0Z" fill="#FF5F1A"/>
</g>
</svg>
