<svg width="70" height="70" viewBox="0 0 70 70" fill="none" xmlns="http://www.w3.org/2000/svg">
<path d="M1.61091 1.61091C3.7588 -0.536971 7.2412 -0.536971 9.38909 1.61091L34.6667 26.8885L59.9442 1.61091C62.0921 -0.536971 65.5745 -0.536971 67.7224 1.61091C69.8703 3.7588 69.8703 7.2412 67.7224 9.38909L42.4448 34.6667L67.7224 59.9442C69.8703 62.0921 69.8703 65.5745 67.7224 67.7224C65.5745 69.8703 62.0921 69.8703 59.9442 67.7224L34.6667 42.4448L9.38909 67.7224C7.24121 69.8703 3.7588 69.8703 1.61092 67.7224C-0.536965 65.5745 -0.536965 62.0921 1.61092 59.9442L26.8885 34.6667L1.61091 9.38909C-0.536971 7.2412 -0.536971 3.7588 1.61091 1.61091Z" fill="#777777"/>
</svg>
