<?xml version="1.0" encoding="UTF-8" standalone="no"?>
<!DOCTYPE svg PUBLIC "-//W3C//DTD SVG 1.1//EN" "http://www.w3.org/Graphics/SVG/1.1/DTD/svg11.dtd">
<svg width="100%" height="100%" viewBox="0 0 20 20" version="1.1" xmlns="http://www.w3.org/2000/svg" xmlns:xlink="http://www.w3.org/1999/xlink" xml:space="preserve" xmlns:serif="http://www.serif.com/" style="fill-rule:evenodd;clip-rule:evenodd;stroke-linejoin:round;stroke-miterlimit:2;">
    <g transform="matrix(1,0,0,1,3,3.11124)">
        <path d="M2.507,0.852C2.117,0.461 1.483,0.461 1.093,0.852C0.702,1.242 0.702,1.875 1.093,2.266L1.402,2.575C0.027,4.276 0.13,6.776 1.711,8.357L5.48,12.126C6.391,13.037 7.868,13.037 8.779,12.126L9.866,11.039L11.753,12.926C12.143,13.316 12.776,13.316 13.167,12.926C13.557,12.535 13.557,11.902 13.167,11.512L3.543,1.887C3.538,1.883 3.534,1.878 3.529,1.874L2.507,0.852ZM7.129,1.659C8.808,0.569 11.076,0.76 12.548,2.232C14.239,3.923 14.239,6.665 12.548,8.357L12.457,8.447C12.067,8.838 11.433,8.838 11.043,8.447C10.652,8.057 10.652,7.424 11.043,7.033L11.134,6.943C12.044,6.032 12.044,4.556 11.134,3.646C10.223,2.735 8.747,2.735 7.837,3.646C7.446,4.036 6.813,4.036 6.422,3.646C6.264,3.487 6.089,3.357 5.905,3.254C5.422,2.986 5.247,2.378 5.516,1.895C5.784,1.412 6.392,1.238 6.875,1.506C6.961,1.554 7.046,1.605 7.129,1.659Z" style="fill:white;"/>
    </g>
</svg>
