<svg width="53" height="54" viewBox="0 0 53 54" fill="none" xmlns="http://www.w3.org/2000/svg">
<g filter="url(#filter0_dd_740_1300)">
<mask id="path-1-inside-1_740_1300" fill="white">
<path fill-rule="evenodd" clip-rule="evenodd" d="M21.8853 20.1428C21.8853 17.3183 24.175 15.0286 26.9996 15.0286C29.8241 15.0286 32.1139 17.3183 32.1139 20.1428C32.1139 22.9674 29.8241 25.2571 26.9996 25.2571C24.175 25.2571 21.8853 22.9674 21.8853 20.1428ZM20.0283 28.7429C17.2669 28.7429 15.0283 30.9815 15.0283 33.7429V35.9715C15.0283 37.6283 16.3715 38.9715 18.0283 38.9715H35.9712C37.628 38.9715 38.9712 37.6283 38.9712 35.9715V33.7429C38.9712 30.9815 36.7326 28.7429 33.9712 28.7429H20.0283Z"/>
</mask>
<path fill-rule="evenodd" clip-rule="evenodd" d="M21.8853 20.1428C21.8853 17.3183 24.175 15.0286 26.9996 15.0286C29.8241 15.0286 32.1139 17.3183 32.1139 20.1428C32.1139 22.9674 29.8241 25.2571 26.9996 25.2571C24.175 25.2571 21.8853 22.9674 21.8853 20.1428ZM20.0283 28.7429C17.2669 28.7429 15.0283 30.9815 15.0283 33.7429V35.9715C15.0283 37.6283 16.3715 38.9715 18.0283 38.9715H35.9712C37.628 38.9715 38.9712 37.6283 38.9712 35.9715V33.7429C38.9712 30.9815 36.7326 28.7429 33.9712 28.7429H20.0283Z" fill="#FF8133"/>
<path fill-rule="evenodd" clip-rule="evenodd" d="M21.8853 20.1428C21.8853 17.3183 24.175 15.0286 26.9996 15.0286C29.8241 15.0286 32.1139 17.3183 32.1139 20.1428C32.1139 22.9674 29.8241 25.2571 26.9996 25.2571C24.175 25.2571 21.8853 22.9674 21.8853 20.1428ZM20.0283 28.7429C17.2669 28.7429 15.0283 30.9815 15.0283 33.7429V35.9715C15.0283 37.6283 16.3715 38.9715 18.0283 38.9715H35.9712C37.628 38.9715 38.9712 37.6283 38.9712 35.9715V33.7429C38.9712 30.9815 36.7326 28.7429 33.9712 28.7429H20.0283Z" fill="url(#paint0_linear_740_1300)" style="mix-blend-mode:soft-light"/>
<path d="M26.9996 14.5286C23.8989 14.5286 21.3853 17.0422 21.3853 20.1428H22.3853C22.3853 17.5945 24.4512 15.5286 26.9996 15.5286V14.5286ZM32.6139 20.1428C32.6139 17.0422 30.1003 14.5286 26.9996 14.5286V15.5286C29.548 15.5286 31.6139 17.5945 31.6139 20.1428H32.6139ZM26.9996 25.7571C30.1003 25.7571 32.6139 23.2435 32.6139 20.1428H31.6139C31.6139 22.6912 29.548 24.7571 26.9996 24.7571V25.7571ZM21.3853 20.1428C21.3853 23.2435 23.8989 25.7571 26.9996 25.7571V24.7571C24.4512 24.7571 22.3853 22.6912 22.3853 20.1428H21.3853ZM15.5283 33.7429C15.5283 31.2576 17.543 29.2429 20.0283 29.2429V28.2429C16.9908 28.2429 14.5283 30.7053 14.5283 33.7429H15.5283ZM15.5283 35.9715V33.7429H14.5283V35.9715H15.5283ZM18.0283 38.4715C16.6476 38.4715 15.5283 37.3522 15.5283 35.9715H14.5283C14.5283 37.9045 16.0953 39.4715 18.0283 39.4715V38.4715ZM35.9712 38.4715H18.0283V39.4715H35.9712V38.4715ZM38.4712 35.9715C38.4712 37.3522 37.3519 38.4715 35.9712 38.4715V39.4715C37.9042 39.4715 39.4712 37.9045 39.4712 35.9715H38.4712ZM38.4712 33.7429V35.9715H39.4712V33.7429H38.4712ZM33.9712 29.2429C36.4565 29.2429 38.4712 31.2576 38.4712 33.7429H39.4712C39.4712 30.7053 37.0087 28.2429 33.9712 28.2429V29.2429ZM20.0283 29.2429H33.9712V28.2429H20.0283V29.2429Z" fill="url(#paint1_linear_740_1300)" fill-opacity="0.8" style="mix-blend-mode:soft-light" mask="url(#path-1-inside-1_740_1300)"/>
</g>
<defs>
<filter id="filter0_dd_740_1300" x="0.0283203" y="0.0285645" width="58.9429" height="58.9429" filterUnits="userSpaceOnUse" color-interpolation-filters="sRGB">
<feFlood flood-opacity="0" result="BackgroundImageFix"/>
<feColorMatrix in="SourceAlpha" type="matrix" values="0 0 0 0 0 0 0 0 0 0 0 0 0 0 0 0 0 0 127 0" result="hardAlpha"/>
<feOffset dx="5" dy="5"/>
<feGaussianBlur stdDeviation="7.5"/>
<feColorMatrix type="matrix" values="0 0 0 0 1 0 0 0 0 0.505882 0 0 0 0 0.2 0 0 0 0.4 0"/>
<feBlend mode="normal" in2="BackgroundImageFix" result="effect1_dropShadow_740_1300"/>
<feColorMatrix in="SourceAlpha" type="matrix" values="0 0 0 0 0 0 0 0 0 0 0 0 0 0 0 0 0 0 127 0" result="hardAlpha"/>
<feOffset dx="-5" dy="-5"/>
<feGaussianBlur stdDeviation="5"/>
<feColorMatrix type="matrix" values="0 0 0 0 1 0 0 0 0 1 0 0 0 0 1 0 0 0 1 0"/>
<feBlend mode="normal" in2="effect1_dropShadow_740_1300" result="effect2_dropShadow_740_1300"/>
<feBlend mode="normal" in="SourceGraphic" in2="effect2_dropShadow_740_1300" result="shape"/>
</filter>
<linearGradient id="paint0_linear_740_1300" x1="9.53066" y1="11.6548" x2="40.0736" y2="37.1608" gradientUnits="userSpaceOnUse">
<stop stop-color="white"/>
<stop offset="1" stop-opacity="0"/>
</linearGradient>
<linearGradient id="paint1_linear_740_1300" x1="15.4771" y1="15.4639" x2="34.9302" y2="36.7707" gradientUnits="userSpaceOnUse">
<stop stop-color="white"/>
<stop offset="1" stop-color="white" stop-opacity="0"/>
</linearGradient>
</defs>
</svg>
