<svg width="53" height="54" viewBox="0 0 53 54" fill="none" xmlns="http://www.w3.org/2000/svg">
<g filter="url(#filter0_dd_740_1185)">
<mask id="path-1-inside-1_740_1185" fill="white">
<path fill-rule="evenodd" clip-rule="evenodd" d="M27.6502 15.2929C27.2597 14.9024 26.6266 14.9024 26.236 15.2929L15.2929 26.236C14.9024 26.6266 14.9024 27.2597 15.2929 27.6502C15.6834 28.0408 16.3166 28.0408 16.7071 27.6502L17.4318 26.9255V35.8863C17.4318 37.5431 18.775 38.8863 20.4318 38.8863H33.4545C35.1113 38.8863 36.4545 37.5431 36.4545 35.8863V26.9255L37.1792 27.6502C37.5697 28.0408 38.2029 28.0408 38.5934 27.6502C38.9839 27.2597 38.9839 26.6266 38.5934 26.236L27.6502 15.2929Z"/>
</mask>
<path fill-rule="evenodd" clip-rule="evenodd" d="M27.6502 15.2929C27.2597 14.9024 26.6266 14.9024 26.236 15.2929L15.2929 26.236C14.9024 26.6266 14.9024 27.2597 15.2929 27.6502C15.6834 28.0408 16.3166 28.0408 16.7071 27.6502L17.4318 26.9255V35.8863C17.4318 37.5431 18.775 38.8863 20.4318 38.8863H33.4545C35.1113 38.8863 36.4545 37.5431 36.4545 35.8863V26.9255L37.1792 27.6502C37.5697 28.0408 38.2029 28.0408 38.5934 27.6502C38.9839 27.2597 38.9839 26.6266 38.5934 26.236L27.6502 15.2929Z" fill="#30CC2D"/>
<path fill-rule="evenodd" clip-rule="evenodd" d="M27.6502 15.2929C27.2597 14.9024 26.6266 14.9024 26.236 15.2929L15.2929 26.236C14.9024 26.6266 14.9024 27.2597 15.2929 27.6502C15.6834 28.0408 16.3166 28.0408 16.7071 27.6502L17.4318 26.9255V35.8863C17.4318 37.5431 18.775 38.8863 20.4318 38.8863H33.4545C35.1113 38.8863 36.4545 37.5431 36.4545 35.8863V26.9255L37.1792 27.6502C37.5697 28.0408 38.2029 28.0408 38.5934 27.6502C38.9839 27.2597 38.9839 26.6266 38.5934 26.236L27.6502 15.2929Z" fill="url(#paint0_linear_740_1185)" style="mix-blend-mode:soft-light"/>
<path d="M26.236 15.2929L25.8825 14.9393L25.8825 14.9393L26.236 15.2929ZM27.6502 15.2929L28.0038 14.9393L28.0038 14.9393L27.6502 15.2929ZM15.2929 26.236L14.9393 25.8825L14.9393 25.8825L15.2929 26.236ZM15.2929 27.6502L14.9393 28.0038L14.9393 28.0038L15.2929 27.6502ZM16.7071 27.6502L17.0607 28.0038H17.0607L16.7071 27.6502ZM17.4318 26.9255H17.9318V25.7184L17.0783 26.572L17.4318 26.9255ZM36.4545 26.9255L36.808 26.572L35.9545 25.7184V26.9255H36.4545ZM38.5934 27.6502L38.9469 28.0038V28.0038L38.5934 27.6502ZM38.5934 26.236L38.9469 25.8825V25.8825L38.5934 26.236ZM26.5896 15.6464C26.7848 15.4512 27.1014 15.4512 27.2967 15.6464L28.0038 14.9393C27.418 14.3536 26.4683 14.3536 25.8825 14.9393L26.5896 15.6464ZM15.6464 26.5896L26.5896 15.6464L25.8825 14.9393L14.9393 25.8825L15.6464 26.5896ZM15.6464 27.2967C15.4512 27.1014 15.4512 26.7848 15.6464 26.5896L14.9393 25.8825C14.3536 26.4683 14.3536 27.418 14.9393 28.0038L15.6464 27.2967ZM16.3536 27.2967C16.1583 27.4919 15.8417 27.4919 15.6464 27.2967L14.9393 28.0038C15.5251 28.5896 16.4749 28.5896 17.0607 28.0038L16.3536 27.2967ZM17.0783 26.572L16.3536 27.2967L17.0607 28.0038L17.7854 27.2791L17.0783 26.572ZM17.9318 35.8863V26.9255H16.9318V35.8863H17.9318ZM20.4318 38.3863C19.0511 38.3863 17.9318 37.267 17.9318 35.8863H16.9318C16.9318 37.8193 18.4988 39.3863 20.4318 39.3863V38.3863ZM33.4545 38.3863H20.4318V39.3863H33.4545V38.3863ZM35.9545 35.8863C35.9545 37.267 34.8352 38.3863 33.4545 38.3863V39.3863C35.3875 39.3863 36.9545 37.8193 36.9545 35.8863H35.9545ZM35.9545 26.9255V35.8863H36.9545V26.9255H35.9545ZM37.5327 27.2967L36.808 26.572L36.1009 27.2791L36.8256 28.0038L37.5327 27.2967ZM38.2398 27.2967C38.0446 27.4919 37.728 27.4919 37.5327 27.2967L36.8256 28.0038C37.4114 28.5896 38.3611 28.5896 38.9469 28.0038L38.2398 27.2967ZM38.2398 26.5896C38.4351 26.7848 38.4351 27.1014 38.2398 27.2967L38.9469 28.0038C39.5327 27.418 39.5327 26.4683 38.9469 25.8825L38.2398 26.5896ZM27.2967 15.6464L38.2398 26.5896L38.9469 25.8825L28.0038 14.9393L27.2967 15.6464Z" fill="url(#paint1_linear_740_1185)" fill-opacity="0.8" style="mix-blend-mode:soft-light" mask="url(#path-1-inside-1_740_1185)"/>
</g>
<defs>
<filter id="filter0_dd_740_1185" x="0" y="0" width="58.8862" height="58.8862" filterUnits="userSpaceOnUse" color-interpolation-filters="sRGB">
<feFlood flood-opacity="0" result="BackgroundImageFix"/>
<feColorMatrix in="SourceAlpha" type="matrix" values="0 0 0 0 0 0 0 0 0 0 0 0 0 0 0 0 0 0 127 0" result="hardAlpha"/>
<feOffset dx="5" dy="5"/>
<feGaussianBlur stdDeviation="7.5"/>
<feColorMatrix type="matrix" values="0 0 0 0 0.188235 0 0 0 0 0.8 0 0 0 0 0.176471 0 0 0 0.4 0"/>
<feBlend mode="normal" in2="BackgroundImageFix" result="effect1_dropShadow_740_1185"/>
<feColorMatrix in="SourceAlpha" type="matrix" values="0 0 0 0 0 0 0 0 0 0 0 0 0 0 0 0 0 0 127 0" result="hardAlpha"/>
<feOffset dx="-5" dy="-5"/>
<feGaussianBlur stdDeviation="5"/>
<feColorMatrix type="matrix" values="0 0 0 0 1 0 0 0 0 1 0 0 0 0 1 0 0 0 1 0"/>
<feBlend mode="normal" in2="effect1_dropShadow_740_1185" result="effect2_dropShadow_740_1185"/>
<feBlend mode="normal" in="SourceGraphic" in2="effect2_dropShadow_740_1185" result="shape"/>
</filter>
<linearGradient id="paint0_linear_740_1185" x1="9.51534" y1="11.6342" x2="39.986" y2="37.08" gradientUnits="userSpaceOnUse">
<stop stop-color="white"/>
<stop offset="1" stop-opacity="0"/>
</linearGradient>
<linearGradient id="paint1_linear_740_1185" x1="15.4477" y1="15.4343" x2="34.8548" y2="36.6908" gradientUnits="userSpaceOnUse">
<stop stop-color="white"/>
<stop offset="1" stop-color="white" stop-opacity="0"/>
</linearGradient>
</defs>
</svg>
