<svg width="31" height="31" viewBox="0 0 31 31" fill="none" xmlns="http://www.w3.org/2000/svg">
<g filter="url(#filter0_dd_740_2148)">
<mask id="path-1-inside-1_740_2148" fill="white">
<path fill-rule="evenodd" clip-rule="evenodd" d="M9.63627 18.1214C8.4647 19.2929 8.4647 21.1924 9.63627 22.364C10.8078 23.5356 12.7073 23.5356 13.8789 22.364L16.0002 20.2427C16.3908 19.8522 17.0239 19.8522 17.4144 20.2427C17.805 20.6332 17.805 21.2664 17.4144 21.6569L15.2931 23.7782C13.3405 25.7308 10.1747 25.7308 8.22206 23.7782C6.26944 21.8256 6.26944 18.6598 8.22206 16.7071L10.3434 14.5858C10.7339 14.1953 11.3671 14.1953 11.7576 14.5858C12.1481 14.9763 12.1481 15.6095 11.7576 16L9.63627 18.1214ZM12.4647 19.5356C12.0742 19.145 12.0742 18.5119 12.4647 18.1214L18.1216 12.4645C18.5121 12.074 19.1452 12.074 19.5358 12.4645C19.9263 12.855 19.9263 13.4882 19.5358 13.8787L13.8789 19.5356C13.4884 19.9261 12.8552 19.9261 12.4647 19.5356ZM14.586 10.3432C14.1955 10.7337 14.1955 11.3669 14.586 11.7574C14.9765 12.1479 15.6097 12.1479 16.0002 11.7574L18.1216 9.63607C19.2931 8.4645 21.1926 8.4645 22.3642 9.63607C23.5358 10.8076 23.5358 12.7071 22.3642 13.8787L20.2429 16C19.8523 16.3906 19.8523 17.0237 20.2429 17.4142C20.6334 17.8048 21.2666 17.8048 21.6571 17.4142L23.7784 15.2929C25.731 13.3403 25.731 10.1745 23.7784 8.22186C21.8258 6.26924 18.66 6.26924 16.7073 8.22186L14.586 10.3432Z"/>
</mask>
<path fill-rule="evenodd" clip-rule="evenodd" d="M9.63627 18.1214C8.4647 19.2929 8.4647 21.1924 9.63627 22.364C10.8078 23.5356 12.7073 23.5356 13.8789 22.364L16.0002 20.2427C16.3908 19.8522 17.0239 19.8522 17.4144 20.2427C17.805 20.6332 17.805 21.2664 17.4144 21.6569L15.2931 23.7782C13.3405 25.7308 10.1747 25.7308 8.22206 23.7782C6.26944 21.8256 6.26944 18.6598 8.22206 16.7071L10.3434 14.5858C10.7339 14.1953 11.3671 14.1953 11.7576 14.5858C12.1481 14.9763 12.1481 15.6095 11.7576 16L9.63627 18.1214ZM12.4647 19.5356C12.0742 19.145 12.0742 18.5119 12.4647 18.1214L18.1216 12.4645C18.5121 12.074 19.1452 12.074 19.5358 12.4645C19.9263 12.855 19.9263 13.4882 19.5358 13.8787L13.8789 19.5356C13.4884 19.9261 12.8552 19.9261 12.4647 19.5356ZM14.586 10.3432C14.1955 10.7337 14.1955 11.3669 14.586 11.7574C14.9765 12.1479 15.6097 12.1479 16.0002 11.7574L18.1216 9.63607C19.2931 8.4645 21.1926 8.4645 22.3642 9.63607C23.5358 10.8076 23.5358 12.7071 22.3642 13.8787L20.2429 16C19.8523 16.3906 19.8523 17.0237 20.2429 17.4142C20.6334 17.8048 21.2666 17.8048 21.6571 17.4142L23.7784 15.2929C25.731 13.3403 25.731 10.1745 23.7784 8.22186C21.8258 6.26924 18.66 6.26924 16.7073 8.22186L14.586 10.3432Z" fill="#525961"/>
<path fill-rule="evenodd" clip-rule="evenodd" d="M9.63627 18.1214C8.4647 19.2929 8.4647 21.1924 9.63627 22.364C10.8078 23.5356 12.7073 23.5356 13.8789 22.364L16.0002 20.2427C16.3908 19.8522 17.0239 19.8522 17.4144 20.2427C17.805 20.6332 17.805 21.2664 17.4144 21.6569L15.2931 23.7782C13.3405 25.7308 10.1747 25.7308 8.22206 23.7782C6.26944 21.8256 6.26944 18.6598 8.22206 16.7071L10.3434 14.5858C10.7339 14.1953 11.3671 14.1953 11.7576 14.5858C12.1481 14.9763 12.1481 15.6095 11.7576 16L9.63627 18.1214ZM12.4647 19.5356C12.0742 19.145 12.0742 18.5119 12.4647 18.1214L18.1216 12.4645C18.5121 12.074 19.1452 12.074 19.5358 12.4645C19.9263 12.855 19.9263 13.4882 19.5358 13.8787L13.8789 19.5356C13.4884 19.9261 12.8552 19.9261 12.4647 19.5356ZM14.586 10.3432C14.1955 10.7337 14.1955 11.3669 14.586 11.7574C14.9765 12.1479 15.6097 12.1479 16.0002 11.7574L18.1216 9.63607C19.2931 8.4645 21.1926 8.4645 22.3642 9.63607C23.5358 10.8076 23.5358 12.7071 22.3642 13.8787L20.2429 16C19.8523 16.3906 19.8523 17.0237 20.2429 17.4142C20.6334 17.8048 21.2666 17.8048 21.6571 17.4142L23.7784 15.2929C25.731 13.3403 25.731 10.1745 23.7784 8.22186C21.8258 6.26924 18.66 6.26924 16.7073 8.22186L14.586 10.3432Z" fill="url(#paint0_linear_740_2148)" style="mix-blend-mode:soft-light"/>
<path d="M9.98982 22.0104C9.01351 21.0341 9.01351 19.4512 9.98982 18.4749L9.28272 17.7678C7.91588 19.1346 7.91588 21.3507 9.28272 22.7175L9.98982 22.0104ZM13.5254 22.0104C12.549 22.9868 10.9661 22.9868 9.98982 22.0104L9.28272 22.7175C10.6496 24.0844 12.8656 24.0844 14.2325 22.7175L13.5254 22.0104ZM15.6467 19.8891L13.5254 22.0104L14.2325 22.7175L16.3538 20.5962L15.6467 19.8891ZM17.768 19.8891C17.1822 19.3033 16.2325 19.3033 15.6467 19.8891L16.3538 20.5962C16.549 20.401 16.8656 20.401 17.0609 20.5962L17.768 19.8891ZM17.768 22.0104C18.3538 21.4247 18.3538 20.4749 17.768 19.8891L17.0609 20.5962C17.2562 20.7915 17.2562 21.1081 17.0609 21.3033L17.768 22.0104ZM15.6467 24.1318L17.768 22.0104L17.0609 21.3033L14.9396 23.4247L15.6467 24.1318ZM7.8685 24.1318C10.0164 26.2796 13.4988 26.2796 15.6467 24.1318L14.9396 23.4247C13.1822 25.182 10.333 25.182 8.57561 23.4247L7.8685 24.1318ZM7.8685 16.3536C5.72062 18.5015 5.72062 21.9839 7.8685 24.1318L8.57561 23.4247C6.81825 21.6673 6.81825 18.8181 8.57561 17.0607L7.8685 16.3536ZM9.98982 14.2323L7.8685 16.3536L8.57561 17.0607L10.6969 14.9394L9.98982 14.2323ZM12.1111 14.2323C11.5254 13.6465 10.5756 13.6465 9.98982 14.2323L10.6969 14.9394C10.8922 14.7441 11.2088 14.7441 11.404 14.9394L12.1111 14.2323ZM12.1111 16.3536C12.6969 15.7678 12.6969 14.8181 12.1111 14.2323L11.404 14.9394C11.5993 15.1346 11.5993 15.4512 11.404 15.6465L12.1111 16.3536ZM9.98982 18.4749L12.1111 16.3536L11.404 15.6465L9.28272 17.7678L9.98982 18.4749ZM12.1111 17.7678C11.5254 18.3536 11.5254 19.3033 12.1111 19.8891L12.8183 19.182C12.623 18.9868 12.623 18.6702 12.8183 18.4749L12.1111 17.7678ZM17.768 12.1109L12.1111 17.7678L12.8183 18.4749L18.4751 12.8181L17.768 12.1109ZM19.8893 12.1109C19.3035 11.5252 18.3538 11.5252 17.768 12.1109L18.4751 12.8181C18.6704 12.6228 18.9869 12.6228 19.1822 12.8181L19.8893 12.1109ZM19.8893 14.2323C20.4751 13.6465 20.4751 12.6967 19.8893 12.1109L19.1822 12.8181C19.3775 13.0133 19.3775 13.3299 19.1822 13.5252L19.8893 14.2323ZM14.2325 19.8891L19.8893 14.2323L19.1822 13.5252L13.5254 19.182L14.2325 19.8891ZM12.1111 19.8891C12.6969 20.4749 13.6467 20.4749 14.2325 19.8891L13.5254 19.182C13.3301 19.3773 13.0135 19.3773 12.8183 19.182L12.1111 19.8891ZM14.9396 11.4038C14.7443 11.2086 14.7443 10.892 14.9396 10.6967L14.2325 9.98963C13.6467 10.5754 13.6467 11.5252 14.2325 12.1109L14.9396 11.4038ZM15.6467 11.4038C15.4514 11.5991 15.1348 11.5991 14.9396 11.4038L14.2325 12.1109C14.8183 12.6967 15.768 12.6967 16.3538 12.1109L15.6467 11.4038ZM17.768 9.28252L15.6467 11.4038L16.3538 12.1109L18.4751 9.98963L17.768 9.28252ZM22.7177 9.28252C21.3509 7.91569 19.1348 7.91569 17.768 9.28252L18.4751 9.98963C19.4514 9.01332 21.0343 9.01332 22.0106 9.98963L22.7177 9.28252ZM22.7177 14.2323C24.0846 12.8654 24.0846 10.6494 22.7177 9.28252L22.0106 9.98963C22.987 10.9659 22.987 12.5489 22.0106 13.5252L22.7177 14.2323ZM20.5964 16.3536L22.7177 14.2323L22.0106 13.5252L19.8893 15.6465L20.5964 16.3536ZM20.5964 17.0607C20.4012 16.8654 20.4012 16.5489 20.5964 16.3536L19.8893 15.6465C19.3035 16.2323 19.3035 17.182 19.8893 17.7678L20.5964 17.0607ZM21.3035 17.0607C21.1083 17.256 20.7917 17.256 20.5964 17.0607L19.8893 17.7678C20.4751 18.3536 21.4249 18.3536 22.0106 17.7678L21.3035 17.0607ZM23.4249 14.9394L21.3035 17.0607L22.0106 17.7678L24.132 15.6465L23.4249 14.9394ZM23.4249 8.57541C25.1822 10.3328 25.1822 13.182 23.4249 14.9394L24.132 15.6465C26.2798 13.4986 26.2798 10.0162 24.132 7.86831L23.4249 8.57541ZM17.0609 8.57541C18.8183 6.81806 21.6675 6.81805 23.4249 8.57541L24.132 7.86831C21.9841 5.72042 18.5017 5.72042 16.3538 7.86831L17.0609 8.57541ZM14.9396 10.6967L17.0609 8.57541L16.3538 7.86831L14.2325 9.98963L14.9396 10.6967Z" fill="url(#paint1_linear_740_2148)" fill-opacity="0.8" style="mix-blend-mode:soft-light" mask="url(#path-1-inside-1_740_2148)"/>
</g>
<defs>
<filter id="filter0_dd_740_2148" x="-8.24219" y="-8.24255" width="53.4854" height="53.4852" filterUnits="userSpaceOnUse" color-interpolation-filters="sRGB">
<feFlood flood-opacity="0" result="BackgroundImageFix"/>
<feColorMatrix in="SourceAlpha" type="matrix" values="0 0 0 0 0 0 0 0 0 0 0 0 0 0 0 0 0 0 127 0" result="hardAlpha"/>
<feOffset dx="5" dy="5"/>
<feGaussianBlur stdDeviation="7.5"/>
<feColorMatrix type="matrix" values="0 0 0 0 0.321569 0 0 0 0 0.34902 0 0 0 0 0.380392 0 0 0 0.4 0"/>
<feBlend mode="normal" in2="BackgroundImageFix" result="effect1_dropShadow_740_2148"/>
<feColorMatrix in="SourceAlpha" type="matrix" values="0 0 0 0 0 0 0 0 0 0 0 0 0 0 0 0 0 0 127 0" result="hardAlpha"/>
<feOffset dx="-5" dy="-5"/>
<feGaussianBlur stdDeviation="5"/>
<feColorMatrix type="matrix" values="0 0 0 0 1 0 0 0 0 1 0 0 0 0 1 0 0 0 1 0"/>
<feBlend mode="normal" in2="effect1_dropShadow_740_2148" result="effect2_dropShadow_740_2148"/>
<feBlend mode="normal" in="SourceGraphic" in2="effect2_dropShadow_740_2148" result="shape"/>
</filter>
<linearGradient id="paint0_linear_740_2148" x1="0.118163" y1="22.8183" x2="21.9606" y2="29.2635" gradientUnits="userSpaceOnUse">
<stop stop-color="white"/>
<stop offset="1" stop-opacity="0"/>
</linearGradient>
<linearGradient id="paint1_linear_740_2148" x1="5.10668" y1="20.0796" x2="19.0341" y2="25.8376" gradientUnits="userSpaceOnUse">
<stop stop-color="white"/>
<stop offset="1" stop-color="white" stop-opacity="0"/>
</linearGradient>
</defs>
</svg>
