<svg width="16" height="16" viewBox="0 0 16 16" fill="none" xmlns="http://www.w3.org/2000/svg">
<path fill-rule="evenodd" clip-rule="evenodd" d="M7.79486 2.09468C7.94692 1.76045 7.90357 1.36976 7.68194 1.077C7.46032 0.784229 7.09607 0.636473 6.73311 0.69211C3.21071 1.23206 0.513184 4.27361 0.513184 7.94703C0.513184 12.0008 3.7994 15.287 7.85316 15.287C11.9069 15.287 15.1931 12.0008 15.1931 7.94703C15.1931 7.87842 15.1922 7.81001 15.1903 7.74181C15.1802 7.37442 14.9694 7.04218 14.6413 6.87658C14.3132 6.71098 13.9207 6.73871 13.6191 6.94879C12.9831 7.39182 12.2111 7.65147 11.3754 7.65147C9.20429 7.65147 7.44428 5.89146 7.44428 3.72038C7.44428 3.13859 7.57002 2.58887 7.79486 2.09468Z" fill="#525961"/>
</svg>
