<svg width="25" height="25" viewBox="0 0 25 25" fill="none" xmlns="http://www.w3.org/2000/svg">
<path fill-rule="evenodd" clip-rule="evenodd" d="M17.3026 19.6209C15.5009 20.9477 13.2749 21.7317 10.8659 21.7317C4.86491 21.7317 0 16.8668 0 10.8659C0 4.86491 4.86491 0 10.8659 0C16.8668 0 21.7317 4.86491 21.7317 10.8659C21.7317 13.2748 20.9477 15.5007 19.621 17.3024L24.4986 22.1809C24.6553 22.3321 24.7804 22.513 24.8664 22.713C24.9524 22.913 24.9977 23.1282 24.9997 23.346C25.0016 23.5637 24.9601 23.7797 24.8777 23.9812C24.7953 24.1827 24.6735 24.3659 24.5196 24.5198C24.3656 24.6738 24.1825 24.7956 23.9809 24.878C23.7794 24.9604 23.5634 25.0019 23.3457 24.9999C23.1279 24.998 22.9128 24.9527 22.7127 24.8666C22.5127 24.7806 22.3318 24.6556 22.1806 24.4989L17.3026 19.6209ZM3.25976 10.8659C3.25976 15.0666 6.66514 18.472 10.8659 18.472C15.0666 18.472 18.472 15.0666 18.472 10.8659C18.472 6.66514 15.0666 3.25976 10.8659 3.25976C6.66514 3.25976 3.25976 6.66514 3.25976 10.8659Z" fill="#404B69"/>
</svg>
