<svg width="31" height="31" viewBox="0 0 31 31" fill="none" xmlns="http://www.w3.org/2000/svg">
<g filter="url(#filter0_dd_740_2143)">
<mask id="path-1-inside-1_740_2143" fill="white">
<path fill-rule="evenodd" clip-rule="evenodd" d="M6.15403 18.3131C4.31992 16.8458 4.80713 13.9353 7.0191 13.1453L19.4658 8.70005C21.8496 7.84867 24.1514 10.1504 23.3 12.5343L18.8548 24.981C18.0648 27.1929 15.1542 27.6801 13.6869 25.846L10.9675 22.4468L16.7072 16.7071C17.0977 16.3165 17.0977 15.6834 16.7072 15.2928C16.3167 14.9023 15.6835 14.9023 15.293 15.2928L9.5533 21.0325L6.15403 18.3131Z"/>
</mask>
<path fill-rule="evenodd" clip-rule="evenodd" d="M6.15403 18.3131C4.31992 16.8458 4.80713 13.9353 7.0191 13.1453L19.4658 8.70005C21.8496 7.84867 24.1514 10.1504 23.3 12.5343L18.8548 24.981C18.0648 27.1929 15.1542 27.6801 13.6869 25.846L10.9675 22.4468L16.7072 16.7071C17.0977 16.3165 17.0977 15.6834 16.7072 15.2928C16.3167 14.9023 15.6835 14.9023 15.293 15.2928L9.5533 21.0325L6.15403 18.3131Z" fill="#5CA0FF"/>
<path fill-rule="evenodd" clip-rule="evenodd" d="M6.15403 18.3131C4.31992 16.8458 4.80713 13.9353 7.0191 13.1453L19.4658 8.70005C21.8496 7.84867 24.1514 10.1504 23.3 12.5343L18.8548 24.981C18.0648 27.1929 15.1542 27.6801 13.6869 25.846L10.9675 22.4468L16.7072 16.7071C17.0977 16.3165 17.0977 15.6834 16.7072 15.2928C16.3167 14.9023 15.6835 14.9023 15.293 15.2928L9.5533 21.0325L6.15403 18.3131Z" fill="url(#paint0_linear_740_2143)" style="mix-blend-mode:soft-light"/>
<path d="M7.0191 13.1453L7.18727 13.6162L7.18727 13.6162L7.0191 13.1453ZM6.15403 18.3131L5.84168 18.7036L6.15403 18.3131ZM19.4658 8.70005L19.2976 8.22918L19.4658 8.70005ZM23.3 12.5343L23.7709 12.7024L23.3 12.5343ZM18.8548 24.981L18.3839 24.8128L18.8548 24.981ZM13.6869 25.846L14.0774 25.5337L13.6869 25.846ZM10.9675 22.4468L10.614 22.0932L10.2975 22.4096L10.5771 22.7591L10.9675 22.4468ZM9.5533 21.0325L9.24095 21.423L9.59041 21.7025L9.90685 21.3861L9.5533 21.0325ZM6.85094 12.6744C4.27029 13.5961 3.70188 16.9917 5.84168 18.7036L6.46638 17.9227C4.93795 16.6999 5.34396 14.2745 7.18727 13.6162L6.85094 12.6744ZM19.2976 8.22918L6.85094 12.6744L7.18727 13.6162L19.6339 9.17092L19.2976 8.22918ZM23.7709 12.7024C24.7642 9.92128 22.0788 7.2359 19.2976 8.22918L19.6339 9.17092C21.6205 8.46144 23.5386 10.3796 22.8291 12.3661L23.7709 12.7024ZM19.3256 25.1491L23.7709 12.7024L22.8291 12.3661L18.3839 24.8128L19.3256 25.1491ZM13.2965 26.1584C15.0083 28.2982 18.404 27.7298 19.3256 25.1491L18.3839 24.8128C17.7256 26.6561 15.3001 27.0621 14.0774 25.5337L13.2965 26.1584ZM10.5771 22.7591L13.2965 26.1584L14.0774 25.5337L11.3579 22.1344L10.5771 22.7591ZM16.3537 16.3535L10.614 22.0932L11.3211 22.8003L17.0608 17.0606L16.3537 16.3535ZM16.3537 15.6464C16.5489 15.8417 16.5489 16.1582 16.3537 16.3535L17.0608 17.0606C17.6465 16.4748 17.6465 15.5251 17.0608 14.9393L16.3537 15.6464ZM15.6465 15.6464C15.8418 15.4511 16.1584 15.4511 16.3537 15.6464L17.0608 14.9393C16.475 14.3535 15.5252 14.3535 14.9394 14.9393L15.6465 15.6464ZM9.90685 21.3861L15.6465 15.6464L14.9394 14.9393L9.19975 20.679L9.90685 21.3861ZM5.84168 18.7036L9.24095 21.423L9.86565 20.6421L6.46638 17.9227L5.84168 18.7036Z" fill="url(#paint1_linear_740_2143)" fill-opacity="0.8" style="mix-blend-mode:soft-light" mask="url(#path-1-inside-1_740_2143)"/>
</g>
<defs>
<filter id="filter0_dd_740_2143" x="-9.97266" y="-6.48083" width="53.4531" height="53.4536" filterUnits="userSpaceOnUse" color-interpolation-filters="sRGB">
<feFlood flood-opacity="0" result="BackgroundImageFix"/>
<feColorMatrix in="SourceAlpha" type="matrix" values="0 0 0 0 0 0 0 0 0 0 0 0 0 0 0 0 0 0 127 0" result="hardAlpha"/>
<feOffset dx="5" dy="5"/>
<feGaussianBlur stdDeviation="7.5"/>
<feColorMatrix type="matrix" values="0 0 0 0 0.372549 0 0 0 0 0.639216 0 0 0 0 1 0 0 0 0.4 0"/>
<feBlend mode="normal" in2="BackgroundImageFix" result="effect1_dropShadow_740_2143"/>
<feColorMatrix in="SourceAlpha" type="matrix" values="0 0 0 0 0 0 0 0 0 0 0 0 0 0 0 0 0 0 127 0" result="hardAlpha"/>
<feOffset dx="-5" dy="-5"/>
<feGaussianBlur stdDeviation="5"/>
<feColorMatrix type="matrix" values="0 0 0 0 1 0 0 0 0 1 0 0 0 0 1 0 0 0 1 0"/>
<feBlend mode="normal" in2="effect1_dropShadow_740_2143" result="effect2_dropShadow_740_2143"/>
<feBlend mode="normal" in="SourceGraphic" in2="effect2_dropShadow_740_2143" result="shape"/>
</filter>
<linearGradient id="paint0_linear_740_2143" x1="-0.858709" y1="17.155" x2="28.4529" y2="15.0325" gradientUnits="userSpaceOnUse">
<stop stop-color="white"/>
<stop offset="1" stop-opacity="0"/>
</linearGradient>
<linearGradient id="paint1_linear_740_2143" x1="4.24185" y1="15.9525" x2="25.4073" y2="17.2859" gradientUnits="userSpaceOnUse">
<stop stop-color="white"/>
<stop offset="1" stop-color="white" stop-opacity="0"/>
</linearGradient>
</defs>
</svg>
