<?xml version="1.0" encoding="UTF-8" standalone="no"?>
<!DOCTYPE svg PUBLIC "-//W3C//DTD SVG 1.1//EN" "http://www.w3.org/Graphics/SVG/1.1/DTD/svg11.dtd">
<svg width="100%" height="100%" viewBox="0 0 20 20" version="1.1" xmlns="http://www.w3.org/2000/svg" xmlns:xlink="http://www.w3.org/1999/xlink" xml:space="preserve" xmlns:serif="http://www.serif.com/" style="fill-rule:evenodd;clip-rule:evenodd;stroke-linejoin:round;stroke-miterlimit:2;">
    <g transform="matrix(0.900149,0,0,0.900149,2.97884,2.21371)">
        <path d="M12.9,0C11.409,0 10.2,1.209 10.2,2.7C10.2,2.836 10.21,2.969 10.23,3.1L4.362,6.523C3.905,6.164 3.328,5.95 2.7,5.95C1.209,5.95 0,7.159 0,8.65C0,10.141 1.209,11.35 2.7,11.35C3.328,11.35 3.905,11.136 4.362,10.778L10.23,14.2C10.21,14.331 10.2,14.464 10.2,14.6C10.2,16.091 11.409,17.3 12.9,17.3C14.391,17.3 15.6,16.091 15.6,14.6C15.6,13.109 14.391,11.9 12.9,11.9C12.272,11.9 11.695,12.114 11.238,12.473L5.37,9.05C5.39,8.919 5.4,8.786 5.4,8.65C5.4,8.514 5.39,8.381 5.37,8.25L11.238,4.827C11.695,5.186 12.272,5.4 12.9,5.4C14.391,5.4 15.6,4.191 15.6,2.7C15.6,1.209 14.391,0 12.9,0Z" style="fill:white;"/>
    </g>
</svg>
