<svg width="18" height="18" viewBox="0 0 18 18" fill="none" xmlns="http://www.w3.org/2000/svg">
<path fill-rule="evenodd" clip-rule="evenodd" d="M8.84047 0.336914C9.39276 0.336914 9.84047 0.784629 9.84047 1.33691V2.18656C9.84047 2.73885 9.39275 3.18656 8.84047 3.18656C8.28819 3.18656 7.84047 2.73885 7.84047 2.18656V1.33691C7.84047 0.784629 8.28819 0.336914 8.84047 0.336914ZM0.193359 8.98377C0.193359 8.43148 0.641075 7.98377 1.19336 7.98377H2.04301C2.59529 7.98377 3.04301 8.43148 3.04301 8.98377C3.04301 9.53605 2.59529 9.98377 2.04301 9.98377H1.19336C0.641075 9.98377 0.193359 9.53605 0.193359 8.98377ZM14.637 8.98377C14.637 8.43148 15.0847 7.98377 15.637 7.98377H16.4866C17.0389 7.98377 17.4866 8.43148 17.4866 8.98377C17.4866 9.53605 17.0389 9.98377 16.4866 9.98377H15.637C15.0847 9.98377 14.637 9.53605 14.637 8.98377ZM9.84047 15.7811C9.84047 15.2288 9.39276 14.7811 8.84047 14.7811C8.28819 14.7811 7.84047 15.2288 7.84047 15.7811V16.6307C7.84047 17.183 8.28819 17.6307 8.84047 17.6307C9.39275 17.6307 9.84047 17.183 9.84047 16.6307V15.7811ZM14.3533 13.0829C13.9628 12.6924 13.3296 12.6924 12.9391 13.0829C12.5486 13.4734 12.5486 14.1066 12.9391 14.4971L13.5399 15.0979C13.9304 15.4884 14.5636 15.4884 14.9541 15.0979C15.3446 14.7074 15.3446 14.0742 14.9541 13.6837L14.3533 13.0829ZM2.7262 2.86937C3.11672 2.47884 3.74989 2.47884 4.14041 2.86937L4.74121 3.47016C5.13173 3.86068 5.13173 4.49385 4.74121 4.88437C4.35068 5.2749 3.71752 5.2749 3.32699 4.88437L2.7262 4.28358C2.33568 3.89306 2.33568 3.25989 2.7262 2.86937ZM4.74184 14.4971C5.13237 14.1066 5.13237 13.4734 4.74184 13.0829C4.35132 12.6924 3.71815 12.6924 3.32763 13.0829L2.72684 13.6837C2.33631 14.0742 2.33631 14.7074 2.72684 15.0979C3.11736 15.4884 3.75053 15.4884 4.14105 15.0979L4.74184 14.4971ZM14.9553 2.86937C15.3458 3.25989 15.3458 3.89306 14.9553 4.28358L14.3545 4.88437C13.9639 5.2749 13.3308 5.2749 12.9403 4.88437C12.5497 4.49385 12.5497 3.86068 12.9403 3.47016L13.541 2.86937C13.9316 2.47884 14.5647 2.47884 14.9553 2.86937ZM4.44205 8.98389C4.44205 6.55462 6.41136 4.5853 8.84064 4.5853C11.2699 4.5853 13.2392 6.55462 13.2392 8.98389C13.2392 11.4132 11.2699 13.3825 8.84064 13.3825C6.41136 13.3825 4.44205 11.4132 4.44205 8.98389Z" fill="#FFCF55"/>
</svg>
